<svg width="550" height="550" viewBox="0 0 550 550" fill="none" xmlns="http://www.w3.org/2000/svg">
<circle cx="275" cy="275" r="275" fill="#EBDFC9"/>
<path d="M278.5 378H27.5L59.6745 431.523L93.2125 468.988C98.0399 470.645 110.896 473.958 123.702 473.958C136.507 473.958 145.689 471.282 149.5 468.988C154.073 465.675 163.755 458.055 179 458.666C194.245 459.278 201.427 461.979 206 465.165C210.573 468.351 222.943 474.57 231.175 473.958C241.465 473.193 243.371 471.282 253.661 465.165C261.893 460.272 265.984 458.794 267 458.666C274.333 456.809 293.4 457.038 309 467C324.6 476.962 342.667 466.003 349.5 458.666C352.833 456.169 364 452.6 372 453C380 453.4 394.5 459.943 402.5 465.165C403.167 465.777 411.6 469.1 440 477.5L477.5 449L516.5 391L531 355L541.5 313V260V233.5L520 251L503 260L481.5 274H456.5L427 298L384.5 323V274H314.5C314.5 300.5 323.5 334 278.5 378Z" fill="#A8754A"/>
<path d="M364.692 26.7353C286.379 -7.33225 201.636 12.1897 161 29.4148C196.749 31.9667 264.594 46.8313 297 124H489.5C458.02 58.7741 395.555 32.8598 364.692 26.7353Z" fill="#A8754A"/>
<path d="M244.01 159C230.419 173.545 211.392 209.064 244.01 234.785M274.815 159.459V238M301.09 201.715H338.691M338.691 201.715V165.89M338.691 201.715C338.842 210.901 338.691 238 301.09 238M359.077 165.89V201.715M359.077 201.715C359.077 212.891 362.701 238 396.678 238M359.077 201.715H396.678M413.893 169.564V203.782M413.893 238V203.782M413.893 203.782H451.946M456.929 187.936C456.567 169.197 477.617 168.033 490 169.564V238" stroke="#132B37" stroke-width="15"/>
<path d="M127.247 441.135C110.938 451.783 82.9602 457.854 72 455.614L103.261 480.433L151.048 509.39L203.219 531.624L287.831 543L337.372 540.415L424.615 503.702L477.224 462.336C478.978 460.612 478.89 456.855 464.51 455.614C446.535 454.062 437.329 448.892 417.6 436.482C401.818 426.554 384.72 432.345 378.144 436.482C369.522 442.17 355.356 454.513 337.372 454.513C324.658 454.513 329.48 456.131 310.19 443.721C291.168 431.483 289.194 431.484 279.894 431.486L279.497 431.486C269.852 431.486 261.965 437.967 257.143 441.135C251.59 445.272 237.327 453.545 224.701 453.545C208.918 453.545 196.204 443.654 192.258 442.103C189.23 440.913 151.798 425.106 127.247 441.135Z" fill="#5F8286"/>
<path d="M84 453.471C90.3548 453.981 97.8651 453.777 114.041 448.884C134.261 442.769 134.261 437.163 160.836 435.124C182.096 433.493 198.965 445.826 205.897 448.884C212.83 451.942 232.703 457.141 247.493 447.355C262.282 437.57 277.149 435.124 282.733 435.124C287.74 435.124 301.104 436.959 314.507 444.298C331.261 453.471 350.903 449.904 358.413 444.298C365.924 438.691 374.589 433.085 388.455 432.066C399.547 431.251 416.57 438.182 423.695 441.749C432.746 445.996 456.278 454.592 478 455" stroke="#EBDFC9" stroke-width="16"/>
<path d="M66.1243 265.54C67.7452 262.282 68.4341 257.476 58.2226 264.318C54.7782 265.133 48.3758 265.173 50.3208 258.82C52.2659 252.467 64.9087 237.031 70.9869 230.108C72.8104 228.275 77.3083 225.954 80.7122 231.329C84.116 236.705 93.8818 251.896 98.3392 258.82C100.163 261.467 101.5 266.517 92.2609 265.54C87.5926 265.046 85.3141 264.427 84.3591 263.857V265.54C89.0191 271.445 99.0686 284.478 101.986 289.365C104.904 294.252 102.391 295.881 100.77 296.085L91.0452 294.863C80.3475 287.532 82.1304 291.809 84.3591 294.863C88.0061 300.361 96.6372 312.824 101.986 318.688C107.335 324.553 104.417 325.408 101.986 325.408H97.1235L92.2609 324.797C84.3591 319.91 82.9409 322.15 83.1435 324.797L103.81 348.622C107.213 359.863 98.7444 358.193 94.0844 355.953C93.0713 355.342 89.9511 353.265 85.5748 349.844C81.1984 346.423 80.9148 349.64 81.32 351.677V381H67.34V349.844C67.34 347.889 65.3139 349.03 64.3008 349.844C59.4382 355.22 56.1965 356.564 55.1834 356.564C39.6231 357.541 41.0008 352.491 43.6347 349.844L67.34 324.797C69.285 318.444 65.3139 319.299 63.0852 320.521L56.3991 324.797C40.3524 327.241 42.4191 320.928 45.4582 317.466L67.34 294.863C68.3125 289.487 64.9087 290.18 63.0852 291.198L56.3991 296.085C43.7563 298.528 43.8373 292.623 45.4582 289.365L66.1243 265.54Z" fill="#091B25"/>
<circle cx="450" cy="351" r="13" fill="#5C4639"/>
<ellipse cx="236" cy="89" rx="14" ry="15" fill="#84603E"/>
<ellipse cx="79.5" cy="174" rx="14.5" ry="15" fill="#946342"/>
<mask id="path-11-inside-1_71_79" fill="white">
<ellipse cx="139.5" cy="114" rx="34.5" ry="35"/>
</mask>
<path d="M129 114C129 109.09 133.093 104 139.5 104V194C184.015 194 219 157.57 219 114H129ZM139.5 104C145.907 104 150 109.09 150 114H60C60 157.57 94.9851 194 139.5 194V104ZM150 114C150 118.91 145.907 124 139.5 124V34C94.9851 34 60 70.4299 60 114H150ZM139.5 124C133.093 124 129 118.91 129 114H219C219 70.4299 184.015 34 139.5 34V124Z" fill="#5C797D" mask="url(#path-11-inside-1_71_79)"/>
<ellipse cx="343" cy="317" rx="14" ry="15" fill="#3E707B"/>
<ellipse cx="126.765" cy="219.261" rx="13" ry="12" transform="rotate(-24.0862 126.765 219.261)" fill="#885A36"/>
<path d="M226.592 314.326L229.592 318.326L246.592 335.326C248.925 337.159 252.092 340.826 246.092 340.826C240.092 340.826 235.592 339.493 234.092 338.826C229.292 338.026 230.092 340.493 231.092 341.826C236.092 346.326 246.592 356.026 248.592 358.826C251.092 362.326 249.592 366.326 245.092 366.326C241.492 366.326 236.925 363.326 235.092 361.826C231.925 359.826 225.792 356.326 226.592 358.326C227.392 360.326 226.925 377.159 226.592 385.326H216.092C216.425 378.326 216.892 363.726 216.092 361.326C215.292 358.926 213.759 359.993 213.092 360.826C212.759 362.326 209.992 365.526 201.592 366.326C193.192 367.126 193.425 362.993 194.592 360.826C196.259 359.659 199.992 356.726 201.592 354.326C203.192 351.926 209.925 344.993 213.092 341.826C215.492 338.226 212.092 338.326 210.092 338.826C210.092 339.493 208.392 340.826 201.592 340.826C194.792 340.826 196.092 338.159 197.592 336.826L215.092 318.326C216.692 314.726 208.759 315.826 204.592 316.826C200.592 316.826 194.392 315.826 201.592 311.826C210.592 306.826 221.092 280.326 222.092 278.826C222.892 277.626 223.759 277.993 224.092 278.326C228.492 293.126 239.925 305.826 245.092 310.326C245.925 311.659 247.092 314.626 245.092 315.826C243.092 317.026 237.592 316.326 235.092 315.826C231.092 312.626 227.759 313.493 226.592 314.326Z" fill="#817567"/>
<path d="M118.385 309.488C121.052 307.321 129.385 295.588 141.385 265.988C142.052 264.488 143.885 262.388 145.885 265.988C148.385 270.488 151.385 283.988 157.885 289.988C158.385 291.154 158.685 293.388 155.885 292.988C153.085 292.588 162.052 302.488 166.885 307.488C168.885 310.488 170.785 316.088 162.385 314.488C151.885 312.488 153.385 310.488 150.385 312.988C151.385 313.988 164.385 329.988 170.385 334.488C175.185 338.088 170.052 339.654 166.885 339.988H160.885C159.385 339.488 159.885 339.988 155.885 336.988C152.685 334.588 153.218 337.654 153.885 339.488C157.052 343.821 164.785 353.488 170.385 357.488C175.985 361.488 173.718 363.821 171.885 364.488C169.052 365.821 162.485 367.388 158.885 362.988C155.285 358.588 150.052 357.821 147.885 357.988V382.988H137.885V359.488C137.885 356.688 136.218 357.654 135.385 358.488L129.385 362.988C127.718 363.821 123.185 365.488 118.385 365.488C112.385 365.488 115.885 359.988 117.385 357.488C118.585 355.488 129.218 344.654 134.385 339.488C134.718 337.321 134.885 333.588 132.885 335.988C130.885 338.388 127.385 339.654 125.885 339.988C126.385 340.321 125.885 340.788 119.885 339.988C113.885 339.188 116.385 334.988 118.385 332.988L135.385 314.488C135.552 312.821 135.085 309.988 131.885 311.988C127.885 314.488 129.385 315.488 124.385 315.488C119.385 315.488 115.389 312.988 118.385 309.488Z" fill="#8D8377"/>
<ellipse cx="281.213" cy="49.6528" rx="12" ry="13.7753" transform="rotate(10.0184 281.213 49.6528)" fill="#203339"/>
<path d="M421.993 104H301.076C300.7 100.734 301.528 92.3915 307.857 85.155C314.185 77.9185 327.57 78.8733 333.472 80.2553C336.108 72.466 346.354 57.3398 366.243 59.1489C386.132 60.958 393.616 78.4964 394.872 87.0395C398.011 85.155 406.097 82.5167 413.329 87.0395C420.562 91.5623 422.119 100.231 421.993 104Z" fill="#5A7580"/>
<path d="M453 266H448.566L445.864 269.516C443.794 272.209 439.705 276.204 434.015 281.044C428.461 285.767 421.818 290.93 415.02 295.922C407.793 301.227 400.593 306.191 394.5 310.151V275V266H385.5H252.36C229.197 264.106 213.055 254.983 202.652 243.078C192.134 231.042 187.041 215.654 187 200.679C187.016 200.293 187.032 199.897 187.048 199.493C187.437 189.715 188.026 174.905 194.869 161.499C201.584 148.345 214.891 135.544 243.961 132.5H497.5V129.172C516.97 158.818 530.674 192.59 537.018 228.891L534.331 226.456C520.388 241.842 493.643 266 453 266ZM487.141 114.5H243.5H243.048L242.598 114.545C207.475 118.085 188.52 134.348 178.837 153.315C170.128 170.376 169.436 188.78 169.074 198.413C169.051 199.02 169.03 199.593 169.008 200.128L169 200.314V200.5C169 219.469 175.408 239.256 189.098 254.922C202.893 270.709 223.643 281.804 251.296 283.972L251.648 284H252H376.5V326V340.562L389.525 334.05C397.079 330.273 411.789 320.624 425.672 310.431C432.7 305.271 439.702 299.837 445.677 294.755C450.013 291.068 454.066 287.352 457.214 283.926C495.872 282.573 523.149 262.802 539.539 246.956C540.505 256.172 541 265.528 541 275C541 421.908 421.908 541 275 541C128.092 541 9 421.908 9 275C9 128.092 128.092 9 275 9C361.621 9 438.571 50.4036 487.141 114.5Z" stroke="#152934" stroke-width="18"/>
</svg>
