<svg width="116" height="89" viewBox="0 0 116 89" fill="none" xmlns="http://www.w3.org/2000/svg">
<path d="M86.3345 11.2519C87.2049 9.61989 89.5409 9.6107 90.4241 11.2358L100.387 29.5677C101.347 31.3348 99.7603 33.4042 97.8046 32.9348L88.8704 30.7906C88.5372 30.7106 88.1904 30.7054 87.8548 30.7753L79.2883 32.56C77.3601 32.9617 75.8387 30.9315 76.7656 29.1936L86.3345 11.2519Z" fill="#5C797D"/>
<path d="M86.7091 22.9555C87.6275 21.6272 89.5877 21.6185 90.5178 22.9386L102.5 39.9446C103.699 41.6465 102.225 43.9447 100.178 43.5657L88.9962 41.4956C88.7349 41.4472 88.4673 41.444 88.205 41.4862L77.4825 43.2093C75.463 43.5338 74.0406 41.2781 75.2038 39.5957L86.7091 22.9555Z" fill="#5C797D"/>
<rect x="86.0421" y="26.0245" width="4.64464" height="20.9009" fill="#5C797D"/>
<rect x="-1.17568" y="1.17568" width="69.7568" height="26.6486" rx="13.3243" transform="matrix(-1 0 0 1 113.649 46.2432)" fill="#D6DDE2" stroke="#2F2F45" stroke-width="2.35135"/>
<path d="M91.1174 74.0675L100.716 81.8L100.716 74.0675L91.1174 74.0675Z" fill="#D6DDE2" stroke="#2F2F45" stroke-width="2.35135"/>
<path d="M99.5405 72.8919H101.892V71.7162H90.1351V72.8919H91.7027L94.4459 75.2432H99.5405V72.8919Z" fill="#D6DDE2"/>
<path d="M61.9726 54.4729C59.862 56.7319 56.9071 62.2485 61.9726 66.2433M66.7566 54.5442V66.7427M70.8371 61.1071H76.6765M76.6765 61.1071V55.5429M76.6765 61.1071C76.7 62.5339 76.6765 66.7427 70.8371 66.7427M79.8424 55.5429V61.1071M79.8424 61.1071C79.8424 62.843 80.4053 66.7427 85.6818 66.7427M79.8424 61.1071H85.6818M88.3552 56.1136V61.4282M88.3552 66.7427V61.4282M88.3552 61.4282H94.265M95.0388 58.9671C94.9826 56.0566 98.2517 55.8758 100.175 56.1136V66.7427" stroke="#2F2F45" stroke-width="2.35135"/>
<rect x="16.4595" y="15.2838" width="58.3919" height="26.6486" rx="13.3243" fill="#EBDFC9" stroke="#2F2F45" stroke-width="2.35135"/>
<path d="M40.1664 41.9325L30.5676 49.6649L30.5676 41.9325L40.1664 41.9325Z" fill="#EBDFC9" stroke="#2F2F45" stroke-width="2.35135"/>
<path d="M31.7433 40.7567H29.392V39.5811H41.1487V40.7567H39.5812L36.8379 43.1081H31.7433V40.7567Z" fill="#EBDFC9"/>
<path d="M29.2529 30.4698C29.2529 30.0143 29.3521 29.5991 29.5503 29.2241C29.7485 28.849 30.0459 28.5275 30.4424 28.2596C30.8389 27.9864 31.3318 27.7774 31.9212 27.6328C32.5159 27.4827 33.2071 27.4077 33.9947 27.4077C34.5787 27.4077 35.1922 27.4506 35.8351 27.5363C36.4834 27.622 37.1505 27.7533 37.8363 27.9301C37.8095 27.6301 37.7184 27.3541 37.563 27.1023C37.4077 26.8451 37.1907 26.6255 36.9121 26.4433C36.6388 26.2558 36.3066 26.1111 35.9155 26.0093C35.5297 25.9075 35.0904 25.8566 34.5974 25.8566C34.3295 25.8566 34.0349 25.8727 33.7134 25.9048C33.3919 25.937 33.0597 25.9852 32.7168 26.0495C32.3739 26.1138 32.0337 26.1942 31.6961 26.2906C31.364 26.387 31.0532 26.5022 30.7639 26.6362L30.0406 24.6832C30.3995 24.5546 30.7826 24.4368 31.1898 24.3296C31.6024 24.2225 32.023 24.1314 32.4516 24.0564C32.8802 23.976 33.3089 23.9144 33.7375 23.8715C34.1661 23.8287 34.5814 23.8072 34.9832 23.8072C36.7567 23.8072 38.0747 24.26 38.9373 25.1654C39.8 26.0709 40.2313 27.4586 40.2313 29.3285V33.4595H37.8524V32.5674C37.6059 32.712 37.3353 32.8487 37.0406 32.9773C36.7513 33.1059 36.4352 33.2184 36.0923 33.3148C35.7494 33.4113 35.3797 33.4863 34.9832 33.5398C34.5921 33.5988 34.1768 33.6282 33.7375 33.6282C32.9981 33.6282 32.3471 33.5479 31.7845 33.3871C31.2273 33.2264 30.7612 33.0041 30.3861 32.7201C30.0111 32.4361 29.7271 32.1039 29.5342 31.7235C29.3467 31.3377 29.2529 30.9198 29.2529 30.4698ZM31.7604 30.3894C31.7604 30.5448 31.8006 30.6948 31.881 30.8395C31.9614 30.9788 32.0899 31.1047 32.2668 31.2172C32.4436 31.3244 32.6686 31.4128 32.9419 31.4824C33.2205 31.5467 33.5553 31.5789 33.9465 31.5789C34.3644 31.5789 34.7689 31.5413 35.16 31.4663C35.5511 31.3913 35.9155 31.2922 36.253 31.169C36.5906 31.0457 36.896 30.9038 37.1692 30.743C37.4425 30.5823 37.6702 30.4162 37.8524 30.2447V29.8268C37.488 29.725 37.1264 29.6393 36.7674 29.5696C36.4138 29.5 36.0735 29.4464 35.7467 29.4089C35.4252 29.366 35.1198 29.3366 34.8305 29.3205C34.5465 29.3044 34.2974 29.2964 34.0831 29.2964C33.6384 29.2964 33.2687 29.3259 32.974 29.3848C32.6793 29.4437 32.4409 29.5241 32.2587 29.6259C32.0766 29.7223 31.948 29.8375 31.873 29.9715C31.7979 30.1054 31.7604 30.2447 31.7604 30.3894ZM44.5149 34.6489C44.7614 34.8097 45.0293 34.9516 45.3186 35.0749C45.6079 35.1981 45.908 35.2999 46.2187 35.3803C46.5348 35.4606 46.8563 35.5196 47.1831 35.5571C47.51 35.6 47.8341 35.6214 48.1556 35.6214C49.2486 35.6214 50.0898 35.3856 50.6792 34.9141C51.2739 34.448 51.5713 33.7461 51.5713 32.8085V32.487C51.3623 32.6317 51.1266 32.7656 50.864 32.8889C50.6068 33.0067 50.3282 33.1085 50.0282 33.1943C49.7335 33.28 49.4201 33.347 49.0879 33.3952C48.761 33.438 48.4289 33.4595 48.0913 33.4595C47.368 33.4595 46.7197 33.355 46.1464 33.146C45.5785 32.9317 45.0962 32.621 44.6998 32.2138C44.3086 31.8012 44.0086 31.2949 43.7996 30.6948C43.5907 30.0947 43.4862 29.4089 43.4862 28.6374V23.976H45.8571V27.9783C45.8571 29.1249 46.0741 29.9715 46.508 30.518C46.9474 31.0591 47.6386 31.3297 48.5816 31.3297C49.2459 31.3297 49.8326 31.2145 50.3416 30.9841C50.856 30.7484 51.2659 30.4483 51.5713 30.084V23.976H53.9502V32.3745C53.9502 33.28 53.8216 34.0649 53.5644 34.7293C53.3072 35.399 52.9322 35.9536 52.4392 36.3929C51.9517 36.8323 51.3516 37.1591 50.639 37.3734C49.9264 37.5931 49.1173 37.7029 48.2119 37.7029C47.3278 37.7029 46.5027 37.6092 45.7365 37.4216C44.9703 37.2341 44.2684 36.9796 43.6309 36.6581L44.5149 34.6489ZM57.7114 20.8979H60.2591V28.8865H57.7114V20.8979ZM57.0765 32.0691C57.0765 31.8548 57.1194 31.6539 57.2051 31.4663C57.2962 31.2735 57.4248 31.1074 57.5909 30.9681C57.757 30.8234 57.9579 30.7109 58.1936 30.6305C58.4294 30.5501 58.6946 30.51 58.9893 30.51C59.284 30.51 59.5492 30.5501 59.7849 30.6305C60.0207 30.7109 60.2189 30.8234 60.3796 30.9681C60.5457 31.1074 60.6716 31.2735 60.7574 31.4663C60.8485 31.6539 60.894 31.8548 60.894 32.0691C60.894 32.2834 60.8485 32.487 60.7574 32.6799C60.6716 32.8674 60.5457 33.0308 60.3796 33.1701C60.2189 33.3095 60.0207 33.4193 59.7849 33.4997C59.5492 33.5854 59.284 33.6282 58.9893 33.6282C58.6946 33.6282 58.4294 33.5854 58.1936 33.4997C57.9579 33.4193 57.757 33.3095 57.5909 33.1701C57.4248 33.0308 57.2962 32.8674 57.2051 32.6799C57.1194 32.487 57.0765 32.2834 57.0765 32.0691Z" fill="#2F2F45"/>
<path d="M14.4958 4.57675C15.3195 2.77481 17.8764 2.76564 18.713 4.56163L26.896 22.1277C27.7339 23.9266 26.0756 25.8798 24.1647 25.3447L17.1727 23.3869C16.7894 23.2796 16.3849 23.2726 15.998 23.3666L9.2949 24.9959C7.41061 25.4538 5.82811 23.5373 6.63433 21.7737L14.4958 4.57675Z" fill="#152934"/>
<path d="M14.2264 27.0292C15.0968 25.3972 17.4327 25.388 18.3159 27.0131L28.2789 45.345C29.2393 47.1121 27.6521 49.1815 25.6965 48.7121L16.7623 46.5679C16.429 46.4879 16.0822 46.4827 15.7467 46.5526L7.18019 48.3373C5.25197 48.739 3.73055 46.7088 4.65743 44.9709L14.2264 27.0292Z" fill="#152934"/>
<path d="M14.2264 16.5787C15.0968 14.9467 17.4327 14.9375 18.3159 16.5626L28.2789 34.8945C29.2393 36.6616 27.6521 38.731 25.6965 38.2617L16.7623 36.1175C16.429 36.0375 16.0822 36.0322 15.7467 36.1021L7.18019 37.8868C5.25197 38.2885 3.73055 36.2584 4.65743 34.5205L14.2264 16.5787Z" fill="#152934"/>
<path d="M14.601 38.7327C15.5194 37.4045 17.4795 37.3958 18.4096 38.7159L30.3915 55.7219C31.5905 57.4237 30.1173 59.722 28.0703 59.343L16.888 57.2729C16.6268 57.2245 16.3591 57.2213 16.0968 57.2635L5.37434 58.9866C3.35485 59.3111 1.93243 57.0554 3.09568 55.373L14.601 38.7327Z" fill="#152934"/>
<rect x="13.934" y="41.8018" width="4.64464" height="20.9009" fill="#152934"/>
<path d="M43.2556 38.843C44.1102 36.9735 46.7629 36.964 47.631 38.8273L56.1208 57.0521C56.9902 58.9184 55.2697 60.9448 53.2871 60.3897L46.0329 58.3585C45.6352 58.2472 45.2155 58.2399 44.8142 58.3375L37.8597 60.0278C35.9047 60.503 34.2629 58.5146 35.0993 56.6848L43.2556 38.843Z" fill="#5C797D"/>
<path d="M42.9761 51.2951C43.8791 49.6019 46.3027 49.5923 47.219 51.2784L57.5556 70.2977C58.552 72.1311 56.9054 74.2781 54.8764 73.7911L45.6071 71.5665C45.2614 71.4835 44.9015 71.4781 44.5534 71.5506L35.6657 73.4022C33.6652 73.819 32.0867 71.7127 33.0483 69.9096L42.9761 51.2951Z" fill="#5C797D"/>
<path d="M43.3647 63.4375C44.3175 62.0594 46.3512 62.0504 47.3162 63.42L59.7474 81.0638C60.9914 82.8294 59.4629 85.2138 57.3391 84.8206L45.7375 82.6729C45.4665 82.6227 45.1888 82.6194 44.9166 82.6631L33.7921 84.4509C31.6968 84.7876 30.2211 82.4472 31.428 80.7017L43.3647 63.4375Z" fill="#5C797D"/>
<rect x="42.6726" y="66.6216" width="4.81882" height="21.6847" fill="#5C797D"/>
</svg>
